# xmcd CD database file
# Copyright (C) 1997 Ti Kan
# 
# Track frame offsets:
#     183
#     13383
#     25650
#     40325
#     55943
#     73130
#     87550
#     105813
#     118918
#     131995
#     146503
#     158428
#     175018
#     190773
#     204718
#     222828
#     236805
#     250113
#     262933
#     277485
# 
# Disc length: 3902 seconds
# 
# Revision: 1
# Processed by: cddbd v1.4b41PL1 Copyright (c) Steve Scherf et al.
# Submitted via: DiscPlay 4.0.3
# 
DISCID=2b0f3c14
DTITLE=Tayna Tucker - All Time Greatest Hits
DYEAR=1900
DGENRE=
TTITLE0=It Won't Be Me
TTITLE1=Strong Enough To Bend
TTITLE2=Don't Go Out
TTITLE3=If It Don't Come Easy
TTITLE4=Love Me Like You Used To
TTITLE5=Just Another Love
TTITLE6=I'll Come Back As Another Woman
TTITLE7=One Love At A Time
TTITLE8=Here's Some Love
TTITLE9=What's Your Mama's Name Child
TTITLE10=Walking Shoes
TTITLE11=I Won't Take Less Than Your Love
TTITLE12=Highway Robbery
TTITLE13=It's Only Over For You
TTITLE14=Texes (When I Die)
TTITLE15=Don't Believe My Heart Can Stand Another You
TTITLE16=San Antonio Stroll
TTITLE17=Would You Lay With Me (In A Field Of Stone)
TTITLE18=Blood Red And Going Down
TTITLE19=Delta Dawn
EXTD=
EXTT0=
EXTT1=
EXTT2=
EXTT3=
EXTT4=
EXTT5=
EXTT6=
EXTT7=
EXTT8=
EXTT9=
EXTT10=
EXTT11=
EXTT12=
EXTT13=
EXTT14=
EXTT15=
EXTT16=
EXTT17=
EXTT18=
EXTT19=
PLAYORDER=
